# xmcd
#
# Track frame offsets: 
#        150
#        17832
#        37741
#        53165
#        62590
#        77142
#        93169
#        106545
#        126759
#        142688
#        155926
#        169851
#
# Disc length: 2467 seconds
#
# Revision: 1
# Processed by: cddbd v1.5.2PL0 Copyright (c) Steve Scherf et al.
# Submitted via: ExactAudioCopy v0.99pb4
#
DISCID=8b09a10c
DTITLE=Otis Spann - The Blues Of Otis Spann
DYEAR=1964
DGENRE=Blues
TTITLE0=Rock Me Mama
TTITLE1=I Came From Clarksdale
TTITLE2=Keep Your Hand Out Of My Pocket
TTITLE3=Spann's Boogie
TTITLE4=Sarah Street
TTITLE5=The Blues Don't Like Nobody
TTITLE6=Meet Me In The Bottom
TTITLE7=Lost Sheep In The Fold
TTITLE8=I Got A Feeling
TTITLE9=Jangleboogie
TTITLE10=T.99
TTITLE11=Natural Days
EXTD=
EXTT0=
EXTT1=
EXTT2=
EXTT3=
EXTT4=
EXTT5=
EXTT6=
EXTT7=
EXTT8=
EXTT9=
EXTT10=
EXTT11=
PLAYORDER=
